<svg xmlns="http://www.w3.org/2000/svg" width="139" height="139" viewBox="0 0 139 139"><defs><mask id="46s6b" width="2" height="2" x="-1" y="-1"><path fill="#fff" d="M39 27h53v53H39z"/><path d="M65.5 27C80.135 27 92 38.863 92 53.5 92 68.134 80.135 80 65.5 80 50.864 80 39 68.135 39 53.5 39 38.863 50.863 27 65.5 27z"/></mask><filter id="46s6a" width="200.9" height="212.5" x="-33" y="-45" filterUnits="userSpaceOnUse"><feOffset dx="3.9" dy="15.5" in="SourceGraphic" result="FeOffset1023Out"/><feGaussianBlur in="FeOffset1023Out" result="FeGaussianBlur1024Out" stdDeviation="24.8 24.8"/></filter></defs><g><g><g filter="url(#46s6a)"><path fill="none" d="M65.5 27C80.135 27 92 38.863 92 53.5 92 68.134 80.135 80 65.5 80 50.864 80 39 68.135 39 53.5 39 38.863 50.863 27 65.5 27z" mask="url(&quot;#46s6b&quot;)"/><path fill-opacity=".1" d="M65.5 27C80.135 27 92 38.863 92 53.5 92 68.134 80.135 80 65.5 80 50.864 80 39 68.135 39 53.5 39 38.863 50.863 27 65.5 27z"/></g><path fill="#f6f6f6" d="M65.5 27C80.135 27 92 38.863 92 53.5 92 68.134 80.135 80 65.5 80 50.864 80 39 68.135 39 53.5 39 38.863 50.863 27 65.5 27z"/></g></g></svg>